<?xml version="1.0" encoding="utf-8"?>
<!-- Generator: Adobe Illustrator 16.0.0, SVG Export Plug-In . SVG Version: 6.00 Build 0)  -->
<!DOCTYPE svg PUBLIC "-//W3C//DTD SVG 1.1 Tiny//EN" "http://www.w3.org/Graphics/SVG/1.1/DTD/svg11-tiny.dtd">
<svg version="1.1" baseProfile="tiny" id="Layer_1" xmlns="http://www.w3.org/2000/svg" xmlns:xlink="http://www.w3.org/1999/xlink"
	 x="0px" y="0px" width="30.257px" height="47.666px" viewBox="0 0 30.257 47.666" overflow="scroll" xml:space="preserve">
<g>
	<path fill="none" stroke="#000000" stroke-miterlimit="10" d="M21.142,47.492c0.082-0.222,0.132-0.559,0.163-0.979"/>
	<path fill="none" stroke="#000000" stroke-miterlimit="10" stroke-dasharray="2.0751,2.0751" d="M21.375,44.439
		c0.065-3.2,0.213-7.533,2.932-7.466c5.085,0.129-5.801,11.597-5.512,1.59c0.11-3.786,1.421-10.063-4.585-10.809"/>
	<path fill="none" stroke="#000000" stroke-miterlimit="10" d="M13.167,27.684c-0.316-0.006-0.65,0.002-1.001,0.022
		c-0.132,0.332-0.23,0.65-0.299,0.956"/>
	<path fill="none" stroke="#000000" stroke-miterlimit="10" stroke-dasharray="2.011,2.011" d="M11.875,30.656
		c1.053,3.89,8.403,4.313,10.73,1.695c6.391-7.194-17.385-19.297-21.447-14.805c-5.531,6.117,25.522-3.521,27.716,3.062
		c5.357,16.064-15.416-9.742-15.451-8.233c-0.107,4.623,13.587,6.536,9.19-1.947c-2.768-5.347-4.159-3.116-4.405-8.414"/>
	<path fill="none" stroke="#000000" stroke-miterlimit="10" d="M18.177,1.003C18.171,0.691,18.168,0.357,18.168,0"/>
</g>
</svg>
